# xmcd
#
# Track frame offsets:
#	150
#	17785
#	40569
#	60118
#	82539
#	101030
#	118358
#	136402
#	152569
#	179732
#	194569
#	221635
#
# Disc length: 3195 seconds
#
# Revision: 0
# Processed by: cddbd v1.5.1PL0 Copyright (c) Steve Scherf et al.
# Submitted via: dBpowerAMP V4.0
#
DISCID=9e0c790c
DTITLE=Floyd Taylor - No Doubt
DYEAR=1900
DGENRE=Blues
TTITLE0=We're Goin' Out On The Town
TTITLE1=Baby, I've Changed
TTITLE2=Go Upstairs
TTITLE3=Slipped, Tripped, Stumbled and Fell
TTITLE4=Hit It Right
TTITLE5=My Bad
TTITLE6=We're Goin Steppin
TTITLE7=I've Got To Love Somebody's Baby
TTITLE8=Unfinished Business
TTITLE9=I Can't Stand To Be Away From You
TTITLE10=Here's A Flower
TTITLE11=Step Into My Heart
EXTD=
EXTT0=
EXTT1=
EXTT2=
EXTT3=
EXTT4=
EXTT5=
EXTT6=
EXTT7=
EXTT8=
EXTT9=
EXTT10=
EXTT11=
PLAYORDER=
